<?xml version="1.0" encoding="utf-8"?>
<!-- Generator: Adobe Illustrator 21.1.0, SVG Export Plug-In . SVG Version: 6.00 Build 0)  -->
<svg version="1.1" id="Calque_1" xmlns="http://www.w3.org/2000/svg" xmlns:xlink="http://www.w3.org/1999/xlink" x="0px" y="0px"
	 viewBox="0 0 47.7 77.7" style="enable-background:new 0 0 47.7 77.7;" xml:space="preserve">
<style type="text/css">
	.st0{fill:#020203;}
</style>
<g>
	<path class="st0" d="M35.8,35.6c0-0.8,0-1.6-0.1-2.2c0-0.1-0.1-0.5-0.1-0.7c-0.7-2.9-1.9-3.8-4.4-3.7h-0.9c0-0.4,0-0.7-0.1-1
		s-0.1-0.5-0.2-0.7c-0.7-2.9-1.9-3.8-4.4-3.7h-7.1c-2.5-0.1-3.7,0.8-4.4,3.7C14,27.5,14,27.8,13.9,28c-0.1,0.6-0.1,1.4-0.1,2.2
		c0,0.3,0,0.7,0,1v0.1c0,1,0,15.9,0,16.3c0,0.8,0,1.6,0.1,2.2c0,0.1,0.1,0.5,0.2,0.7c0.1,0.5,0.2,0.9,0.4,1.3l-0.8,0v2.3h17v-2.3
		h-1.1c0.2-0.4,0.3-0.9,0.4-1.3c0.1-0.2,0.1-0.6,0.2-0.7l0.1-3l0-5.3c0-3.9,0-8.7,0-10.2h0.1c1.7,0,2.4,0.4,2.7,2
		c0.2,1.1,0.3,2.2,0.3,3.2c0,0,0,1.6,0,3.5c0,0.3,0.2,0.5,0.5,0.5h1.5c0.3,0,0.5-0.2,0.5-0.5C35.8,37.7,35.8,35.7,35.8,35.6z
		 M27.8,46.4c0,0,0,0.1,0,0.2c0,1.1-0.1,2.2-0.3,3.2c-0.3,1.5-0.9,2-2.5,2h-3.8l-2.4,0c-1.3-0.1-1.9-0.5-2.2-2l-0.3-18.7
		c0-1.1,0.1-2.2,0.3-3.3c0.3-1.6,1-2,2.7-2h5.6c1.7,0,2.4,0.4,2.7,2c0.2,0.8,0.2,1.7,0.3,2.5V46.4z"/>
	<rect x="20" y="33" class="st0" width="3.9" height="2.3"/>
	<rect x="19" y="29.1" class="st0" width="6" height="2.3"/>
</g>
</svg>
