<svg id="Calque_1" data-name="Calque 1" xmlns="http://www.w3.org/2000/svg" viewBox="0 0 22.88 43.09"><title>Carburant</title><path d="M43.83,23.75c0-.83,0-1.62-.1-2.21,0-.14-.09-.49-.15-.73-.69-2.88-1.88-3.75-4.41-3.69h-.89c0-.36,0-.69-.07-1s-.09-.49-.15-.73c-.69-2.88-1.88-3.75-4.41-3.69h-7.1c-2.54-.06-3.72.8-4.41,3.69-.06.25-.13.59-.15.73-.07.59-.08,1.37-.1,2.21,0,.33,0,.67,0,1h0v.08h0c0,1,0,23.56,0,23.9,0,.83,0,1.62.1,2.21,0,.14.09.49.15.73a9.42,9.42,0,0,0,.42,1.34h-1.1a.49.49,0,0,0-.49.49v6.19a.49.49,0,0,0,.49.49H38.75a.49.49,0,0,0,.49-.49V48.13a.49.49,0,0,0-.49-.49h-1.1a9.42,9.42,0,0,0,.42-1.34c.06-.25.13-.59.15-.73.07-.59.08-1.37.1-2.21,0-.33,0-.67,0-1h0v-.08h0c0-.15,0-5.55,0-6.35h2.21a.33.33,0,0,0,.33-.33V31a.33.33,0,0,0-.33-.33H38.33c0-3.88,0-9.71,0-11.16h.08c1.69,0,2.36.38,2.71,2a21.43,21.43,0,0,1,.29,3.25s0,1.58,0,3.49a.49.49,0,0,0,.49.49h1.47a.49.49,0,0,0,.49-.49C43.84,25.89,43.83,23.9,43.83,23.75ZM24.32,19.29A21.32,21.32,0,0,1,24.61,16c.34-1.6,1-2,2.71-2h5.56c1.69,0,2.37.38,2.71,2a16.7,16.7,0,0,1,.26,2.54l0,23.68s0,.1,0,.15a21.42,21.42,0,0,1-.29,3.25c-.34,1.6-1,2-2.71,2H27.32c-1.69,0-2.36-.38-2.71-2l-.29-26.35S24.32,19.3,24.32,19.29ZM36.89,50.48V52c0,.27,0,.49-.49.49H23.8c-.5,0-.49-.22-.49-.49v-1.5c0-.27,0-.49.49-.49H36.4C37,50,36.89,50.21,36.89,50.48Zm2.23-18.42c.18,0,.33,0,.33.33v1.76c0,.39-.15.33-.33.33h-.78c0-.73,0-1.54,0-2.42Z" transform="translate(-20.97 -11.72)"/><rect x="7.12" y="9.48" width="3.94" height="2.28"/><rect x="6.08" y="5.59" width="6.02" height="2.28"/></svg>