<?xml version="1.0" encoding="utf-8"?>
<!-- Generator: Adobe Illustrator 21.1.0, SVG Export Plug-In . SVG Version: 6.00 Build 0)  -->
<svg version="1.1" id="Calque_1" xmlns="http://www.w3.org/2000/svg" xmlns:xlink="http://www.w3.org/1999/xlink" x="0px" y="0px"
	 viewBox="0 0 148.6 115.4" style="enable-background:new 0 0 148.6 115.4;" xml:space="preserve">
<g>
	<rect x="80.1" y="63.9" width="5.4" height="2.4"/>
	<rect x="80.1" y="56.6" width="5.4" height="2.4"/>
	<path d="M73.3,52.7L73.3,52.7c-0.1,0-0.7,0.1-0.9,0.2C71.3,53,70.1,53,69.1,53c-0.9,0-1.7,0-2.3,0.1c-0.1,0-0.5,0.1-0.8,0.2
		c-3,0.7-3.8,1.9-3.8,4.5v2.3c-1.4,0-2.7-0.1-3.7-0.4C57,59.4,56,58.2,56,56.6V46.3h-2.4v11c0,2.6,1.5,4.2,4.4,4.9
		c0.2,0.1,0.6,0.1,0.7,0.1c0.9,0.1,2.2,0.2,3.6,0.2v2.5c-0.1,2.6,0.8,3.8,3.8,4.5c0.3,0.1,0.6,0.1,0.8,0.2c0.6,0.1,1.4,0.1,2.3,0.1
		c1,0,2.1,0,3.2,0.2c0.2,0,0.8,0.1,0.9,0.2l0,0c2.4,0.6,3.3,1.4,3.5,2.1h2.4V50.6h-2.4C76.6,51.3,75.7,52.2,73.3,52.7z M76.8,68.5
		c-0.6-0.3-1.2-0.5-1.9-0.7c-0.2,0-2-0.3-2.6-0.4c-0.7-0.1-1.4-0.1-2.1-0.1c-1.3-0.1-2.4-0.1-3.3-0.3c-1.6-0.4-2.1-1-2-2.8v-5.7
		c0-1.7,0.4-2.4,2-2.8c0.9-0.2,2.1-0.2,3.3-0.3c0.7,0,1.4-0.1,2.1-0.1c0.6,0,2.5-0.3,2.6-0.4c0.7-0.1,1.4-0.4,1.9-0.7V68.5z"/>
</g>
<g>
	<path d="M73.3,64.7c-0.4,0.2-1,0.4-1.7,0.4c-1,0-1.9-0.4-2.5-1.1c-0.4-0.4-0.6-1-0.7-1.6h-0.7v-0.7h0.6c0-0.1,0-0.1,0-0.2
		c0-0.1,0-0.3,0-0.4h-0.6v-0.7h0.7c0.1-0.7,0.4-1.2,0.8-1.7c0.6-0.7,1.4-1,2.4-1c0.7,0,1.2,0.2,1.6,0.3l-0.3,1
		c-0.3-0.2-0.7-0.3-1.2-0.3c-0.6,0-1,0.2-1.4,0.6c-0.2,0.2-0.4,0.6-0.5,1h2.9v0.7h-3c0,0.1,0,0.3,0,0.4c0,0.1,0,0.1,0,0.2h3v0.7
		h-2.9c0.1,0.5,0.2,0.8,0.5,1.1c0.4,0.4,0.9,0.6,1.5,0.6c0.5,0,1-0.2,1.3-0.3L73.3,64.7z"/>
</g>
</svg>
