<svg id="Calque_1" data-name="Calque 1" xmlns="http://www.w3.org/2000/svg" viewBox="0 0 42.6 44.96"><defs><style>.cls-1{fill:#1d1d1b;}</style></defs><title>Insertion</title><path class="cls-1" d="M48.59,28.64l-2-2A12.82,12.82,0,0,0,28.51,8.61,12.83,12.83,0,0,0,11,27.3l1.75,1.75-2.24,2.2-.17.18,0,0A4.14,4.14,0,0,0,13.62,38a4.15,4.15,0,0,0,4.1,4.1A4.16,4.16,0,0,0,18.94,45a4.21,4.21,0,0,0,2.89,1.21,4.13,4.13,0,0,0,6.38,3.44l2.59-2.53a4.14,4.14,0,0,0,6.69-3.21,4.15,4.15,0,0,0,4.1-4.1,4.15,4.15,0,0,0,4.1-4.1,4.15,4.15,0,0,0,2.89-7.09Zm-1.77,4.1a1.68,1.68,0,0,1-1.19.45,1.63,1.63,0,0,1-1-.32l-4.1-4.12-1.85,1.78,4.09,4a1.66,1.66,0,0,1,0,2.3,1.76,1.76,0,0,1-2.3,0l-4-4-1.85,1.78,4.09,4a1.66,1.66,0,0,1,0,2.31,1.75,1.75,0,0,1-2.3,0l-4-4-1.85,1.78,4.09,4a1.66,1.66,0,0,1,0,2.31,1.75,1.75,0,0,1-2.12.17,4,4,0,0,0,.31-1.55,4.15,4.15,0,0,0-4.11-4.15,4.18,4.18,0,0,0-1.21-2.89,4.13,4.13,0,0,0-2.89-1.21,4.19,4.19,0,0,0-1.21-2.89,4.12,4.12,0,0,0-2.89-1.21,4.17,4.17,0,0,0-1.22-2.89,4.06,4.06,0,0,0-2.89-1.19,4.25,4.25,0,0,0-1.56.3l-2-2a10.33,10.33,0,0,1,14-15.18l-10,10-.08.13h0A4.14,4.14,0,0,0,22.78,26l8.67-8.66a1.7,1.7,0,0,1,2.26.05L43.91,27.49l1.64,1.64h0l1.29,1.27a1.65,1.65,0,0,1,0,2.34ZM20.47,41.21l2.8-2.81a1.66,1.66,0,0,1,2.34,0,1.7,1.7,0,0,1,0,2.3L23,43.29a1.75,1.75,0,0,1-2.3,0A1.65,1.65,0,0,1,20.47,41.21Zm-3.92-4.32,2.62-2.59a1.65,1.65,0,0,1,2.34,0,1.7,1.7,0,0,1,.13,2.17L18.9,39.19a1.75,1.75,0,0,1-2.3,0A1.64,1.64,0,0,1,16.55,36.88Zm-4.23-4,2.77-2.77a1.66,1.66,0,0,1,1.14-.46,1.64,1.64,0,0,1,1.17.48,1.7,1.7,0,0,1,.14,2.17L14.8,35.09a1.75,1.75,0,0,1-2.3,0A1.64,1.64,0,0,1,12.32,32.93ZM35.49,15.66a4.09,4.09,0,0,0-2.91-1.21,4.19,4.19,0,0,0-2.65,1L21,24.24l0,.06a1.69,1.69,0,0,1-2.3,0,1.65,1.65,0,0,1,0-2.3l11-11a10.33,10.33,0,0,1,15.18,14ZM24.33,46.2A1.64,1.64,0,0,1,24.81,45l2.57-2.53a1.65,1.65,0,0,1,2.34,0,1.71,1.71,0,0,1,.22,2.06L27,47.46a1.75,1.75,0,0,1-2.21-.1A1.64,1.64,0,0,1,24.33,46.2Z" transform="translate(-7.21 -5.39)"/></svg>