<?xml version="1.0" encoding="utf-8"?>
<!-- Generator: Adobe Illustrator 21.1.0, SVG Export Plug-In . SVG Version: 6.00 Build 0)  -->
<svg version="1.1" id="Calque_1" xmlns="http://www.w3.org/2000/svg" xmlns:xlink="http://www.w3.org/1999/xlink" x="0px" y="0px"
	 viewBox="0 0 148.6 115.4" style="enable-background:new 0 0 148.6 115.4;" xml:space="preserve">
<path d="M94.4,58.5l-2-2c4.5-5.1,4.2-12.7-0.6-17.5c-2.4-2.4-5.6-3.8-9.1-3.8c-3.1,0-6.1,1.1-8.5,3.2c-2.3-2.1-5.3-3.2-8.5-3.2
	c-3.4,0-6.7,1.3-9.1,3.8c-5,5-5,13.1,0,18.1l1.8,1.8l-2.2,2.2l-0.2,0.2l0,0c-1.2,1.6-1,3.9,0.4,5.4c0.8,0.8,1.8,1.2,2.9,1.2
	c0,1.1,0.4,2.1,1.2,2.9c0.8,0.8,1.8,1.2,2.9,1.2c0,1.1,0.4,2.1,1.2,2.9c0.8,0.8,1.8,1.2,2.9,1.2c0,1.1,0.4,2.1,1.2,2.9
	c0.8,0.8,1.8,1.2,2.9,1.2c0.8,0,1.5-0.2,2.2-0.7l2.6-2.5c0.7,0.6,1.6,0.9,2.5,0.9c1.1,0,2.2-0.4,2.9-1.2c0.8-0.8,1.2-1.8,1.2-2.9
	c1.1,0,2.1-0.4,2.9-1.2c0.8-0.8,1.2-1.8,1.2-2.9c1.1,0,2.1-0.4,2.9-1.2c0.8-0.8,1.2-1.8,1.2-2.9c1.1,0,2.1-0.5,2.9-1.2
	C96,62.7,96,60.1,94.4,58.5z M92.6,62.6c-0.3,0.3-0.7,0.5-1.2,0.5c-0.4,0-0.8-0.1-1-0.3l-4.1-4.1l-1.9,1.8l4.1,4
	c0.6,0.6,0.6,1.7,0,2.3c-0.6,0.6-1.7,0.6-2.3,0l-4-4l-1.9,1.8l4.1,4c0.6,0.6,0.6,1.7,0,2.3c-0.6,0.6-1.7,0.6-2.3,0l-4-4l-1.9,1.8
	l4.1,4c0.6,0.6,0.6,1.7,0,2.3c-0.5,0.5-1.5,0.6-2.1,0.2c0.2-0.5,0.3-1,0.3-1.6c0-1.1-0.4-2.2-1.2-2.9c-0.8-0.8-1.8-1.2-2.9-1.2
	c0-1.1-0.5-2.1-1.2-2.9c-0.8-0.8-1.8-1.2-2.9-1.2c0-1.1-0.5-2.1-1.2-2.9c-0.8-0.8-1.8-1.2-2.9-1.2c0-1.1-0.5-2.1-1.2-2.9
	c-0.8-0.8-1.8-1.2-2.9-1.2c-0.5,0-1.1,0.1-1.6,0.3l-2-2c-4-4-4-10.6,0-14.6c2-2,4.5-3,7.3-3c2.4,0,4.8,0.9,6.7,2.5l-10,10l-0.1,0.1
	l0,0c-1.3,1.6-1.2,4.1,0.3,5.6c0.8,0.8,1.8,1.2,2.9,1.2c1.1,0,2.1-0.4,2.9-1.2l8.7-8.7c0.6-0.6,1.7-0.5,2.3,0.1l10.2,10.1l1.6,1.6
	l0,0l1.3,1.3c0.3,0.3,0.5,0.7,0.5,1.2C93.1,61.8,92.9,62.2,92.6,62.6z M66.2,71c0.5-0.5,2.7-2.7,2.8-2.8c0.3-0.3,0.7-0.5,1.2-0.5
	c0.4,0,0.9,0.2,1.2,0.5c0.6,0.6,0.6,1.7,0,2.3l-2.6,2.6c-0.6,0.6-1.7,0.6-2.3,0C65.9,72.5,65.8,71.6,66.2,71z M62.3,66.7l2.6-2.6
	c0.3-0.3,0.7-0.5,1.2-0.5c0.4,0,0.9,0.2,1.2,0.5c0.6,0.6,0.6,1.6,0.1,2.2L64.7,69c-0.6,0.6-1.7,0.6-2.3,0
	C61.8,68.4,61.7,67.3,62.3,66.7z M58.1,62.7l2.8-2.8c0.3-0.3,0.7-0.5,1.1-0.5c0.4,0,0.9,0.2,1.2,0.5c0.6,0.6,0.6,1.5,0.1,2.2
	l-2.7,2.7c-0.6,0.6-1.7,0.6-2.3,0C57.7,64.3,57.6,63.4,58.1,62.7z M81.3,45.5c-0.8-0.8-1.8-1.2-2.9-1.2c-1,0-1.9,0.3-2.7,1l-8.9,8.8
	l0,0.1c-0.6,0.6-1.7,0.6-2.3,0c-0.3-0.3-0.5-0.7-0.5-1.2c0-0.4,0.2-0.8,0.5-1.1l11-11c2-2,4.5-3,7.3-3s5.4,1.1,7.3,3
	c3.8,3.8,4,9.9,0.6,14L81.3,45.5z M70.1,76c0-0.4,0.2-0.9,0.5-1.2l2.6-2.5c0.3-0.3,0.7-0.5,1.2-0.5c0.4,0,0.9,0.2,1.2,0.5
	c0.5,0.5,0.6,1.5,0.2,2.1l-2.9,2.9c-0.6,0.5-1.7,0.5-2.2-0.1C70.3,76.9,70.1,76.5,70.1,76z"/>
</svg>
